PathFileType	4	(X/Y/Z)	output.trc
DataRate	CameraRate	NumFrames	NumMarkers	Units	OrigDataRate	OrigDataStartFrame	OrigNumFrames
100	100	13	23	m	100	5236	5983
Frame#	Time	C7			T8			EL			EM			US			RS			AA			Fore_Clus_1			Fore_Clus_2			Fore_Clus_3			Fore_Clus_4			Hum_Clus_1			Hum_Clus_2			Hum_Clus_3			Hum_Clus_4			Thor_Clus_1			Thor_Clus_2			Thor_Clus_3			Thor_Clus_4			IJ			PX			GH			Thor_Clus_5		
		X1	Y1	Z1	X2	Y2	Z2	X3	Y3	Z3	X4	Y4	Z4	X5	Y5	Z5	X6	Y6	Z6	X7	Y7	Z7	X8	Y8	Z8	X9	Y9	Z9	X10	Y10	Z10	X11	Y11	Z11	X12	Y12	Z12	X13	Y13	Z13	X14	Y14	Z14	X15	Y15	Z15	X16	Y16	Z16	X17	Y17	Z17	X18	Y18	Z18	X19	Y19	Z19	X20	Y20	Z20	X21	Y21	Z21	X22	Y22	Z22	X23	Y23	Z23
5235	52.350000	-0.010547	1.601989	-0.016483	-0.045009	1.381628	-0.112403	-0.342865	1.379734	-0.125738	-0.289110	1.376941	-0.165524	-0.499257	1.260401	-0.300977	-0.467541	1.213403	-0.299427	-0.199643	1.523933	0.071375	-0.493679	1.264842	-0.240090	-0.521911	1.236480	-0.276907	-0.504186	1.214927	-0.273858	-0.464431	1.230573	-0.235021	-0.323103	1.406517	-0.011351	-0.318436	1.458246	-0.042175	-0.293670	1.495197	0.002802	-0.286498	1.448349	0.037884	0.075723	1.433812	0.115615	0.018270	1.379511	0.145006	0.033159	1.432868	0.128347	0.079773	1.380666	0.125880	0.022576	1.486772	0.070290	0.022624	1.297370	0.091704	-0.153168	1.510955	0.087675	0.016462	1.403045	0.140486
5236	52.360000	-0.010399	1.602009	-0.016291	-0.044954	1.381690	-0.112276	-0.342835	1.379753	-0.125523	-0.289113	1.377002	-0.165356	-0.499194	1.260265	-0.300674	-0.467364	1.213341	-0.299237	-0.199496	1.523980	0.071591	-0.493538	1.264537	-0.239734	-0.521786	1.236142	-0.276557	-0.504016	1.214662	-0.273585	-0.464177	1.230372	-0.234786	-0.322976	1.406431	-0.011114	-0.318392	1.458217	-0.041913	-0.293612	1.495151	0.003063	-0.286322	1.448265	0.038102	0.075840	1.433729	0.115732	0.018365	1.379457	0.145085	0.033267	1.432793	0.128497	0.079894	1.380567	0.125976	0.022712	1.486752	0.070435	0.022707	1.297342	0.091784	-0.153013	1.510961	0.087788	0.016593	1.402989	0.140577
5237	52.370000	-0.010248	1.602026	-0.016083	-0.044889	1.381755	-0.112144	-0.342808	1.379796	-0.125309	-0.289118	1.377083	-0.165187	-0.499150	1.260210	-0.300396	-0.467226	1.213347	-0.299061	-0.199346	1.524017	0.071815	-0.493394	1.264430	-0.239407	-0.521690	1.236017	-0.276216	-0.503886	1.214559	-0.273308	-0.463968	1.230310	-0.234563	-0.322827	1.406422	-0.010879	-0.318299	1.458253	-0.041674	-0.293499	1.495157	0.003296	-0.286158	1.448245	0.038337	0.075989	1.433631	0.115831	0.018506	1.379362	0.145167	0.033416	1.432722	0.128627	0.080023	1.380471	0.126057	0.022851	1.486726	0.070591	0.022798	1.297309	0.091867	-0.152855	1.510959	0.087913	0.016739	1.402924	0.140659
5238	52.380000	-0.010100	1.602042	-0.015858	-0.044819	1.381821	-0.112008	-0.342785	1.379861	-0.125097	-0.289125	1.377183	-0.165019	-0.499116	1.260238	-0.300146	-0.467124	1.213418	-0.298899	-0.199197	1.524042	0.072049	-0.493307	1.264510	-0.239158	-0.521627	1.236110	-0.275972	-0.503816	1.214643	-0.273059	-0.463866	1.230412	-0.234367	-0.322660	1.406507	-0.010688	-0.318181	1.458344	-0.041489	-0.293340	1.495245	0.003513	-0.286030	1.448315	0.038520	0.076159	1.433521	0.115946	0.018699	1.379307	0.145289	0.033609	1.432543	0.128720	0.080159	1.380365	0.126154	0.022990	1.486697	0.070757	0.022895	1.297269	0.091951	-0.152697	1.510946	0.088051	0.016908	1.402851	0.140779
5239	52.390000	-0.009956	1.602058	-0.015618	-0.044741	1.381891	-0.111869	-0.342762	1.379943	-0.124889	-0.289130	1.377295	-0.164850	-0.499097	1.260340	-0.299923	-0.467060	1.213550	-0.298750	-0.199052	1.524055	0.072290	-0.493260	1.264732	-0.238970	-0.521621	1.236345	-0.275777	-0.503789	1.214890	-0.272889	-0.463857	1.230593	-0.234203	-0.322523	1.406624	-0.010467	-0.318037	1.458437	-0.041310	-0.293180	1.495323	0.003701	-0.285895	1.448380	0.038729	0.076333	1.433436	0.116060	0.018838	1.379225	0.145388	0.033853	1.432348	0.128800	0.080307	1.380273	0.126261	0.023127	1.486662	0.070934	0.022995	1.297225	0.092035	-0.152541	1.510924	0.088205	0.017086	1.402798	0.140885
5240	52.400000	-0.009815	1.602072	-0.015364	-0.044657	1.381965	-0.111729	-0.342739	1.380035	-0.124685	-0.289131	1.377414	-0.164680	-0.499097	1.260508	-0.299724	-0.467033	1.213734	-0.298615	-0.198911	1.524058	0.072532	-0.493257	1.265027	-0.238805	-0.521646	1.236653	-0.275653	-0.503800	1.215172	-0.272777	-0.463869	1.230815	-0.234090	-0.322402	1.406696	-0.010266	-0.317911	1.458528	-0.041116	-0.293040	1.495371	0.003934	-0.285759	1.448412	0.038949	0.076499	1.433375	0.116201	0.019017	1.379116	0.145588	0.034022	1.432298	0.128962	0.080480	1.380213	0.126347	0.023261	1.486624	0.071120	0.023097	1.297175	0.092117	-0.152391	1.510891	0.088373	0.017263	1.402745	0.140986
5241	52.410000	-0.009683	1.602086	-0.015097	-0.044572	1.382042	-0.111588	-0.342714	1.380133	-0.124484	-0.289127	1.377536	-0.164509	-0.499103	1.260729	-0.299546	-0.467035	1.213958	-0.298490	-0.198778	1.524048	0.072780	-0.493276	1.265275	-0.238651	-0.521694	1.236955	-0.275521	-0.503853	1.215455	-0.272684	-0.463918	1.231018	-0.233970	-0.322310	1.406713	-0.010045	-0.317847	1.458572	-0.040872	-0.292947	1.495369	0.004207	-0.285637	1.448391	0.039169	0.076664	1.433344	0.116356	0.019162	1.379041	0.145734	0.034172	1.432226	0.129108	0.080616	1.380155	0.126479	0.023388	1.486582	0.071313	0.023198	1.297120	0.092198	-0.152251	1.510849	0.088557	0.017430	1.402703	0.141126
5242	52.420000	-0.009555	1.602100	-0.014822	-0.044483	1.382121	-0.111449	-0.342683	1.380230	-0.124287	-0.289113	1.377653	-0.164336	-0.499128	1.260987	-0.299382	-0.467066	1.214209	-0.298372	-0.198652	1.524030	0.073024	-0.493354	1.265501	-0.238495	-0.522016	1.237389	-0.275144	-0.503932	1.215734	-0.272591	-0.463971	1.231211	-0.233759	-0.322217	1.406696	-0.009836	-0.317790	1.458596	-0.040626	-0.292866	1.495338	0.004522	-0.285529	1.448329	0.039424	0.076799	1.433297	0.116529	0.019321	1.378975	0.145861	0.034308	1.432158	0.129248	0.080742	1.380091	0.126625	0.023509	1.486536	0.071512	0.023297	1.297062	0.092277	-0.152122	1.510798	0.088756	0.017544	1.402643	0.141254
5243	52.430000	-0.009438	1.602112	-0.014540	-0.044394	1.382201	-0.111310	-0.342647	1.380319	-0.124093	-0.289090	1.377761	-0.164160	-0.499156	1.261266	-0.299229	-0.467114	1.214474	-0.298258	-0.198536	1.524003	0.073268	-0.493429	1.265726	-0.238326	-0.521808	1.237463	-0.275307	-0.504042	1.216039	-0.272469	-0.464003	1.231369	-0.233389	-0.322144	1.406675	-0.009620	-0.317740	1.458601	-0.040371	-0.292782	1.495324	0.004836	-0.285421	1.448256	0.039635	0.076912	1.433262	0.116705	0.019399	1.378877	0.145999	0.034384	1.432141	0.129583	0.080848	1.380016	0.126780	0.023621	1.486488	0.071714	0.023392	1.297000	0.092353	-0.152007	1.510739	0.088970	0.017654	1.402575	0.141402
5244	52.440000	-0.009328	1.602123	-0.014257	-0.044306	1.382280	-0.111175	-0.342603	1.380396	-0.123902	-0.289053	1.377854	-0.163980	-0.499190	1.261547	-0.299079	-0.467174	1.214737	-0.298143	-0.198429	1.523969	0.073507	-0.493513	1.265944	-0.238159	-0.521924	1.237759	-0.275118	-0.504107	1.216282	-0.272369	-0.464096	1.231610	-0.233306	-0.322106	1.406671	-0.009412	-0.317693	1.458609	-0.040134	-0.292703	1.495337	0.005126	-0.285349	1.448230	0.039842	0.076980	1.433188	0.116899	0.019571	1.378767	0.146130	0.034427	1.432129	0.129908	0.080933	1.379913	0.126920	0.023726	1.486437	0.071918	0.023482	1.296935	0.092428	-0.151906	1.510675	0.089198	0.017719	1.402497	0.141549
5245	52.450000	-0.009224	1.602132	-0.013976	-0.044219	1.382357	-0.111042	-0.342550	1.380456	-0.123711	-0.289003	1.377927	-0.163795	-0.499229	1.261814	-0.298927	-0.467240	1.214984	-0.298024	-0.198329	1.523932	0.073737	-0.493550	1.266093	-0.238012	-0.521984	1.237990	-0.274972	-0.504153	1.216509	-0.272256	-0.464145	1.231813	-0.233184	-0.322078	1.406659	-0.009206	-0.317658	1.458599	-0.039917	-0.292658	1.495282	0.005291	-0.285282	1.448204	0.040055	0.077042	1.433104	0.117063	0.019591	1.378687	0.146267	0.034502	1.432027	0.130016	0.081019	1.379822	0.127045	0.023823	1.486385	0.072120	0.023566	1.296869	0.092502	-0.151821	1.510607	0.089437	0.017759	1.402408	0.141698
5246	52.460000	-0.009129	1.602138	-0.013700	-0.044139	1.382429	-0.110912	-0.342487	1.380495	-0.123521	-0.288940	1.377978	-0.163604	-0.499259	1.262053	-0.298770	-0.467299	1.215203	-0.297894	-0.198238	1.523891	0.073963	-0.493552	1.266237	-0.237865	-0.522020	1.238175	-0.274819	-0.504187	1.216676	-0.272153	-0.464156	1.231951	-0.233062	-0.322050	1.406680	-0.009007	-0.317599	1.458618	-0.039682	-0.292599	1.495291	0.005496	-0.285246	1.448197	0.040257	0.077105	1.433029	0.117226	0.019670	1.378585	0.146396	0.034561	1.431958	0.130148	0.081058	1.379712	0.127199	0.023912	1.486332	0.072318	0.023644	1.296803	0.092575	-0.151750	1.510537	0.089688	0.017816	1.402319	0.141846
5247	52.470000	-0.009037	1.602140	-0.013435	-0.044059	1.382496	-0.110785	-0.342412	1.380511	-0.123330	-0.288861	1.378005	-0.163408	-0.499289	1.262250	-0.298599	-0.467352	1.215384	-0.297752	-0.198151	1.523851	0.074178	-0.493279	1.266219	-0.237812	-0.522027	1.238335	-0.274655	-0.504196	1.216810	-0.272026	-0.464174	1.232082	-0.233052	-0.322023	1.406673	-0.008819	-0.317543	1.458602	-0.039455	-0.292535	1.495269	0.005697	-0.285203	1.448176	0.040474	0.077168	1.432954	0.117396	0.019635	1.378482	0.146800	0.034617	1.431881	0.130294	0.081120	1.379634	0.127322	0.023996	1.486279	0.072511	0.023716	1.296737	0.092648	-0.151693	1.510468	0.089946	0.017876	1.402243	0.141979
